<?xml version="1.0" encoding="UTF-8"?>
<svg id="_レイヤー_1" data-name="レイヤー 1" xmlns="http://www.w3.org/2000/svg" viewBox="0 0 93.86 60.74">
  <defs>
    <style>
      .cls-1 {
        fill: #74b2e0;
      }
    </style>
  </defs>
  <path class="cls-1" d="M65.85,35.21c-1.53.15-2.65,1.52-2.5,3.04,0,.07.02.15.03.23.66,3.77-.2,7.53-2.41,10.58-2.27,3.13-5.68,5.17-9.62,5.74-.64.09-1.29.14-1.92.14h0c-7.64,0-12.61-6.92-14.9-11.04-3.76-6.79-9.39-14.63-19.13-13.86C6.8,30.72.63,36.75.04,45.05c-.29,4.09,1.12,7.97,3.98,10.93,2.7,2.79,6.38,4.48,10.36,4.76.05,0,.1,0,.14,0h.07c1.45,0,2.67-1.13,2.77-2.59.11-1.53-1.05-2.87-2.58-2.97-2.58-.18-5.04-1.3-6.76-3.08-1.75-1.8-2.61-4.17-2.43-6.66.39-5.52,4.41-9.39,10.25-9.85,6.5-.52,10.49,5.01,13.82,11.01,2.53,4.55,5.57,8.07,9.04,10.47,3.32,2.29,6.92,3.45,10.68,3.45.91,0,1.84-.07,2.76-.2,5.44-.79,10.17-3.63,13.33-7.98,3.1-4.27,4.3-9.52,3.4-14.77-.22-1.44-1.55-2.5-3.03-2.35Z"/>
  <path class="cls-1" d="M92.36,36.74c-2.01-4.89-5.79-8.72-10.65-10.79-1.03-.44-2.09-.79-3.17-1.05-1.02-10.05-7.4-18.73-16.71-22.69-6.77-2.88-14.36-2.95-21.19-.2-6.86,2.77-12.23,8.04-15.12,14.84-.91,2.15-1.55,4.41-1.9,6.7-.23,1.52.82,2.94,2.34,3.17,1.52.23,2.94-.85,3.17-2.34.28-1.83.79-3.63,1.52-5.36,2.31-5.44,6.6-9.65,12.08-11.86,5.46-2.2,11.51-2.14,16.93.16,8.02,3.41,13.3,11.25,13.46,19.96.02,1.09.69,2.08,1.7,2.51.25.11.51.18.78.21,1.35.16,2.68.51,3.95,1.05,7.21,3.07,10.65,11.45,7.68,18.69-.58,1.42.09,3.08,1.52,3.63,1.53.59,3.2-.47,3.63-1.52,2-4.88,2-10.26,0-15.14Z"/>
</svg>